<svg width="36" height="36" viewBox="0 0 36 36" fill="none" xmlns="http://www.w3.org/2000/svg">
<rect width="36" height="36" rx="11" fill="url(#paint0_linear_9_14)"/>
<path d="M26.5 17H25.5781C25.3031 16.375 24.903 15.8219 24.4093 15.3594L24.9999 13H23.9999C23.0811 13 22.2686 13.4219 21.7185 14.0719C21.481 14.0375 21.2466 14 20.9998 14H16.9996C14.5808 14 12.5651 15.7188 12.0994 18H10.7494C10.2868 18 9.92121 17.5781 10.015 17.1C10.0837 16.7438 10.4181 16.5 10.7806 16.5H10.8119C10.915 16.5 10.9994 16.4156 10.9994 16.3125V15.6875C10.9994 15.5844 10.915 15.5 10.8119 15.5C9.92121 15.5 9.12743 16.1375 9.01492 17.0188C8.87742 18.0875 9.7087 19 10.7494 19H11.9994C11.9994 20.6313 12.7932 22.0656 13.9995 22.9781V25.5C13.9995 25.775 14.2245 26 14.4995 26H16.4996C16.7746 26 16.9996 25.775 16.9996 25.5V24H20.9998V25.5C20.9998 25.775 21.2248 26 21.4998 26H23.4999C23.7749 26 23.9999 25.775 23.9999 25.5V22.9781C24.3686 22.7 24.6968 22.3719 24.978 22H26.5C26.775 22 27 21.775 27 21.5V17.5C27 17.225 26.775 17 26.5 17ZM22.4998 19C22.2248 19 21.9998 18.775 21.9998 18.5C21.9998 18.225 22.2248 18 22.4998 18C22.7748 18 22.9998 18.225 22.9998 18.5C22.9998 18.775 22.7748 19 22.4998 19ZM16.9996 13H20.9998C21.1685 13 21.3342 13.0125 21.4967 13.025C21.4967 13.0156 21.4998 13.0094 21.4998 13C21.4998 11.3438 20.156 10 18.4997 10C16.8434 10 15.4995 11.3438 15.4995 13C15.4995 13.0656 15.5152 13.1281 15.5183 13.1937C15.9933 13.0719 16.4871 13 16.9996 13Z" fill="white"/>
<defs>
<linearGradient id="paint0_linear_9_14" x1="38" y1="2.80525e-06" x2="18" y2="36" gradientUnits="userSpaceOnUse">
<stop stop-color="#BD00FF"/>
<stop offset="1" stop-opacity="0.9"/>
</linearGradient>
</defs>
</svg>
